# xmcd
#
# Track frame offsets:
#	150
#	26484
#	52068
#
# Disc length: 1075 seconds
#
# Revision: 4
# Processed by: cddbd v1.5.2PL0 Copyright (c) Steve Scherf et al.
# Submitted via: EZCDAudioConverter 6.0.0.1
#
DISCID=20043103
DTITLE=Fatboy Slim - Right Here, Right Now
DYEAR=1999
DGENRE=Electronic
TTITLE0=Right Here, Right Now
TTITLE1=Don't Forget Your Teeth
TTITLE2=Praise You (Original Version)
EXTD=
EXTT0=
EXTT1=
EXTT2=
PLAYORDER=
